<svg xmlns="http://www.w3.org/2000/svg" width="38.16" height="37.221" viewBox="0 0 38.16 37.221"><path d="M38.224,20.1c-.063.544-.114,1.09-.19,1.633a18.852,18.852,0,0,1-5.978,11.451,18.489,18.489,0,0,1-6.622,3.979,1.709,1.709,0,0,1-.429.1.911.911,0,0,1-1.085-1.01c0-1.664.028-3.328.01-4.992a10.043,10.043,0,0,0-.183-1.763,3.588,3.588,0,0,0-1.035-1.9c.774-.15,1.522-.272,2.258-.442a9.078,9.078,0,0,0,2.891-1.194,6.726,6.726,0,0,0,2.708-3.278,11.225,11.225,0,0,0,.595-6.3,6.786,6.786,0,0,0-1.571-3.149.434.434,0,0,1-.1-.477,6.9,6.9,0,0,0-.217-4.6.388.388,0,0,0-.282-.22,8.617,8.617,0,0,0-1.5.2,11.244,11.244,0,0,0-3.288,1.622.6.6,0,0,1-.529.084,17.757,17.757,0,0,0-8.923-.01.7.7,0,0,1-.617-.1A11.19,11.19,0,0,0,10.6,8.057a6.486,6.486,0,0,0-1.224-.119.359.359,0,0,0-.263.2,7.014,7.014,0,0,0-.216,4.668.473.473,0,0,1-.078.382,7.561,7.561,0,0,0-1.788,5.259,11.813,11.813,0,0,0,.762,4.194,7.233,7.233,0,0,0,4.9,4.312c.948.287,1.933.451,2.91.672a.175.175,0,0,1-.042.074,3.852,3.852,0,0,0-1.005,2.085.528.528,0,0,1-.385.467,4.35,4.35,0,0,1-3.517-.032,4.041,4.041,0,0,1-1.616-1.533A5.231,5.231,0,0,0,7.59,27.1a2.592,2.592,0,0,0-2.077-.465c-.424.092-.505.329-.218.651a1.9,1.9,0,0,0,.482.409,3.967,3.967,0,0,1,1.464,1.513,13.316,13.316,0,0,1,.8,1.514A3.662,3.662,0,0,0,10.9,32.884a8.986,8.986,0,0,0,3.129-.03c.074-.011.147-.024.22-.032a.629.629,0,0,1,.117.009c.007.092.019.184.02.276q.016,1.51.031,3.021c.007.924-.6,1.376-1.467,1.053A18.837,18.837,0,0,1,.518,23.2c-.216-.9-.268-1.84-.4-2.762C.1,20.322.083,20.21.064,20.1V18.126c.071-.608.121-1.219.216-1.823a18.793,18.793,0,0,1,6-11.235A18.651,18.651,0,0,1,16.554.251C17.076.178,17.6.125,18.126.064h2.035a2.256,2.256,0,0,0,.277.054,18.442,18.442,0,0,1,9.9,3.585A18.764,18.764,0,0,1,38.04,16.585c.074.512.123,1.027.184,1.541Z" transform="translate(-0.064 -0.064)" fill="#f2f2f2"/></svg>