<svg id="Ebene_1" data-name="Ebene 1" xmlns="http://www.w3.org/2000/svg" width="38.16" height="37.221" viewBox="0 0 37.38 37.38"><defs><style>.cls-1{fill:#f3f3f2;}</style></defs><path class="cls-1" d="M27.21,37.32h-17A10.17,10.17,0,0,1,0,27.15v-17A10.17,10.17,0,0,1,10.17-.06h17A10.17,10.17,0,0,1,37.38,10.11v17A10.18,10.18,0,0,1,27.21,37.32ZM34,27V10.3a7,7,0,0,0-6.95-7H10.36a7,7,0,0,0-6.95,7V27a7,7,0,0,0,7,6.95H27A7,7,0,0,0,34,27Z" transform="translate(0 0.06)"/><path class="cls-1" d="M28.49,18.63a9.81,9.81,0,1,1-9.8-9.81A9.81,9.81,0,0,1,28.49,18.63Zm-9.8-6.09a6.09,6.09,0,1,0,6.09,6.09A6.09,6.09,0,0,0,18.69,12.54Z" transform="translate(0 0.06)"/><circle class="cls-1" cx="28.78" cy="8.74" r="2.32"/></svg>